<svg width="100" height="105" viewBox="0 0 100 105" fill="none" xmlns="http://www.w3.org/2000/svg">
<path d="M59.0771 54.3579C58.7021 53.9526 58.0712 53.9263 57.664 54.3003C55.5742 56.2266 54.3583 58.8511 54.2421 61.6909C54.1269 64.5308 55.124 67.2461 57.0498 69.3359C59.1445 71.6089 62.0078 72.7607 64.8789 72.7607C67.458 72.7607 70.0439 71.831 72.0859 69.9502C72.2812 69.7705 72.3964 69.5205 72.4072 69.2559C72.4179 68.9907 72.3232 68.7324 72.1435 68.5371L59.0771 54.3579ZM58.5205 67.9805C56.956 66.2832 56.1464 64.0786 56.2412 61.7729C56.3212 59.8032 57.0527 57.9604 58.3222 56.4902L69.956 69.1147C66.4609 71.6592 61.5214 71.2368 58.5205 67.9805Z" fill="black"/>
<path d="M59.9248 65.3271C59.5185 65.7016 59.4931 66.3344 59.8672 66.7402C60.0644 66.9541 60.333 67.0625 60.6025 67.0625C60.8447 67.0625 61.0879 66.9751 61.2802 66.7978L62.2529 65.9009C62.6592 65.5263 62.6845 64.8935 62.3105 64.4878C61.9355 64.0815 61.3037 64.0561 60.8974 64.4301L59.9248 65.3271Z" fill="black"/>
<path d="M64.5967 68.9292C64.6113 68.9297 64.625 68.9301 64.6387 68.9301C65.1719 68.9301 65.6152 68.5088 65.6367 67.9707L65.6904 66.6489C65.7129 66.0971 65.2842 65.6318 64.7324 65.6093C64.1377 65.5825 63.7139 66.0161 63.6924 66.5678L63.6387 67.8896C63.6162 68.4414 64.0449 68.9067 64.5967 68.9292Z" fill="black"/>
<path d="M59.0293 62.8873L60.3506 62.9415C60.3642 62.942 60.3789 62.9424 60.3926 62.9424C60.9258 62.9424 61.3691 62.5211 61.3906 61.9835C61.4131 61.4317 60.9844 60.9659 60.4326 60.9434L59.1113 60.8892C58.5517 60.856 58.0937 61.2955 58.0713 61.8472C58.0488 62.399 58.4775 62.8648 59.0293 62.8873Z" fill="black"/>
<path d="M59.4326 48.4864C59.0263 48.8604 59.0009 49.4932 59.375 49.8994L72.4404 64.0786C72.6377 64.2925 72.9062 64.4009 73.1758 64.4009C73.4179 64.4009 73.6611 64.3135 73.8535 64.1363C75.9433 62.2105 77.1592 59.586 77.2754 56.7456C77.3906 53.9058 76.3935 51.191 74.4677 49.1006C70.4922 44.7862 63.747 44.5108 59.4326 48.4864ZM73.1953 61.9463L61.5625 49.3218C65.0566 46.7774 69.997 47.2007 72.997 50.4561C74.5615 52.1534 75.3711 54.3579 75.2763 56.6641C75.1963 58.6338 74.4648 60.4761 73.1953 61.9463Z" fill="black"/>
<path d="M71.5927 53.1099C71.999 52.7354 72.0244 52.1031 71.6504 51.6968C71.2763 51.2911 70.6445 51.2652 70.2373 51.6392L69.2646 52.5357C68.8584 52.9102 68.833 53.5425 69.207 53.9488C69.4043 54.1626 69.6728 54.271 69.9424 54.271C70.1845 54.271 70.4277 54.1836 70.6201 54.0064L71.5927 53.1099Z" fill="black"/>
<path d="M66.9209 49.5073C66.3252 49.4887 65.9033 49.9135 65.8808 50.4658L65.8271 51.7881C65.8047 52.3398 66.2334 52.8052 66.7851 52.8276C66.7998 52.8281 66.8135 52.8286 66.8271 52.8286C67.3603 52.8286 67.8037 52.4072 67.8252 51.8691L67.8789 50.5468C67.9014 49.9951 67.4726 49.5298 66.9209 49.5073Z" fill="black"/>
<path d="M71.167 55.4956C70.583 55.4654 70.1484 55.9019 70.1269 56.4541C70.1045 57.0059 70.5332 57.4712 71.085 57.4937L72.4072 57.5474C72.4219 57.5479 72.4355 57.5484 72.4492 57.5484C72.9824 57.5484 73.4258 57.127 73.4473 56.5889C73.4697 56.0371 73.041 55.5718 72.4892 55.5493L71.167 55.4956Z" fill="black"/>
<path d="M77.627 15.1919C70.9936 15.1919 65.6157 20.3284 65.2777 26.9556H52.5918C52.3086 26.9556 52.0391 27.0757 51.8486 27.2861C51.6592 27.4961 51.5684 27.7773 51.5967 28.0591C51.8965 30.9424 52.4649 33.2021 52.9658 35.1963C54.0342 39.4473 54.6787 42.0137 51.7988 46.5161C46.8281 54.2881 45.8233 63.7744 49.2979 70.1211C51.2271 73.6461 55.3792 77.8054 64.2227 78.2368V88.021H55.2344C54.6816 88.021 54.2344 88.4688 54.2344 89.021C54.2344 89.5732 54.6816 90.021 55.2344 90.021H75.002C75.5547 90.021 76.002 89.5732 76.002 89.021C76.002 88.4688 75.5547 88.021 75.002 88.021H66.2227V78.2662C75.7911 78.1218 80.2011 73.7737 82.208 70.1084C85.6836 63.7593 84.6826 54.2783 79.7188 46.5166C78.0505 43.9083 77.5689 41.9492 77.6632 39.9366C84.4687 39.9168 90 34.376 90 27.5654C90 20.7427 84.4492 15.1919 77.627 15.1919ZM77.7988 28.9556C77.4961 31.1914 77.0303 33.0459 76.6123 34.709C76.5431 34.9842 76.475 35.2554 76.4088 35.5239H55.1088C55.0425 35.2554 54.9745 34.9842 54.9053 34.709C54.4873 33.0459 54.0215 31.1914 53.7188 28.9556H77.7988ZM78.0332 47.5942C82.6162 54.7588 83.5889 63.4204 80.4531 69.1479C77.8994 73.8135 72.8125 76.2798 65.7432 76.2798C58.6816 76.2798 53.6016 73.8184 51.0518 69.1611C47.918 63.4355 48.8955 54.7686 53.4844 47.5938C56.067 43.5554 56.1466 40.6202 55.5551 37.5239H75.9626C75.3711 40.6202 75.4506 43.5555 78.0332 47.5942ZM77.9185 37.9237C78.082 37.0743 78.3041 36.1816 78.5518 35.1963C79.0527 33.2021 79.6211 30.9424 79.9209 28.0591C79.9492 27.7773 79.8584 27.4961 79.669 27.2861C79.4785 27.0757 79.209 26.9556 78.9258 26.9556H67.2795C67.5967 21.4617 72.0895 17.1919 77.627 17.1919C83.3467 17.1919 88 21.8452 88 27.5654C88 33.1868 83.5028 37.7674 77.9185 37.9237Z" fill="black"/>
<path d="M77.627 19.7114C77.0742 19.7114 76.627 20.1592 76.627 20.7114V22.2725C76.627 22.8247 77.0742 23.2725 77.627 23.2725C78.1797 23.2725 78.627 22.8247 78.627 22.2725V20.7114C78.627 20.1592 78.1797 19.7114 77.627 19.7114Z" fill="black"/>
<path d="M73.4873 22.0117C73.0967 21.6211 72.4639 21.6211 72.0732 22.0117C71.6826 22.4019 71.6826 23.0352 72.0732 23.4258L73.1768 24.5298C73.3721 24.7251 73.6279 24.8228 73.8838 24.8228C74.1396 24.8228 74.3955 24.7251 74.5908 24.5298C74.9814 24.1396 74.9814 23.5063 74.5908 23.1157L73.4873 22.0117Z" fill="black"/>
<path d="M82.0762 30.6011C81.6855 30.2104 81.0527 30.2104 80.6621 30.6011C80.2715 30.9917 80.2715 31.6245 80.6621 32.0151L81.7656 33.1187C81.9609 33.314 82.2168 33.4116 82.4727 33.4116C82.7285 33.4116 82.9844 33.314 83.1797 33.1187C83.5703 32.728 83.5703 32.0952 83.1797 31.7046L82.0762 30.6011Z" fill="black"/>
<path d="M82.9199 26.5654C82.3672 26.5654 81.9199 27.0132 81.9199 27.5654C81.9199 28.1177 82.3672 28.5654 82.9199 28.5654H84.4805C85.0332 28.5654 85.4805 28.1177 85.4805 27.5654C85.4805 27.0132 85.0332 26.5654 84.4805 26.5654H82.9199Z" fill="black"/>
<path d="M81.3691 24.8228C81.625 24.8228 81.8809 24.7251 82.0762 24.5298L83.1797 23.4258C83.5703 23.0352 83.5703 22.4019 83.1797 22.0117C82.7891 21.6211 82.1562 21.6211 81.7656 22.0117L80.6621 23.1157C80.2715 23.5063 80.2715 24.1396 80.6621 24.5298C80.8574 24.7251 81.1133 24.8228 81.3691 24.8228Z" fill="black"/>
<path d="M12.6279 22.5698C12.3867 23.1435 6.8066 36.7256 12.6279 45.4741C15.557 49.877 20.8189 52.2028 28.2656 52.4054V88H19.2773C18.7246 88 18.2773 88.4477 18.2773 89C18.2773 89.5522 18.7246 90 19.2773 90H39.0459C39.5986 90 40.0459 89.5522 40.0459 89C40.0459 88.4477 39.5986 88 39.0459 88H30.2656V52.408C37.7872 52.2313 43.0972 49.9054 46.0449 45.4746C50.9481 38.1054 47.7628 27.3086 46.492 23.7432C46.5913 23.7491 46.6854 23.7729 46.7861 23.7729C49.5586 23.7729 51.8144 21.5175 51.8144 18.7451C51.8144 17.3726 51.259 16.1291 50.3643 15.2209L52.9482 11.5786C53.2675 11.1279 53.1621 10.5039 52.7109 10.1845C52.2627 9.86422 51.6357 9.97165 51.3173 10.4214L48.7065 14.1017C48.1141 13.8557 47.4664 13.7168 46.7861 13.7168C44.0136 13.7168 41.7578 15.9726 41.7578 18.7451C41.7578 19.9718 42.2168 21.0824 42.9494 21.956H13.5498C13.1464 21.956 12.7832 22.1977 12.6279 22.5698ZM44.3769 44.3711C41.7021 48.3881 36.6416 50.4253 29.3369 50.4253C22.0322 50.4253 16.9716 48.3881 14.2959 44.3706C12.5504 41.7499 11.9877 38.5517 12.0093 35.4472H34.0679L28.5214 43.2656C28.2021 43.7163 28.3076 44.3403 28.7587 44.6596C28.9335 44.7846 29.1357 44.8442 29.3359 44.8442C29.6494 44.8442 29.958 44.6977 30.1523 44.4228L36.5197 35.4472H46.6638C46.6853 38.5518 46.1225 41.7503 44.3769 44.3711ZM44.5151 24.1767C45.0789 25.7435 46.2319 29.369 46.5675 33.4472H37.9385L44.5151 24.1767ZM46.7861 15.7168C48.456 15.7168 49.8144 17.0752 49.8144 18.7451C49.8144 20.4145 48.456 21.7729 46.7861 21.7729C45.1162 21.7729 43.7578 20.4145 43.7578 18.7451C43.7578 17.0752 45.1162 15.7168 46.7861 15.7168ZM42.2199 23.956L35.4867 33.4472H12.1056C12.4564 29.185 13.7077 25.3943 14.2363 23.956H42.2199Z" fill="black"/>
</svg>
