<svg width="100" height="97" viewBox="0 0 100 97" fill="none" xmlns="http://www.w3.org/2000/svg">
<path d="M60.6523 57.6353H39.3477C38.7954 57.6353 38.3477 58.083 38.3477 58.6353V65.1587C38.3477 65.7109 38.7954 66.1587 39.3477 66.1587H60.6523C61.2046 66.1587 61.6523 65.7109 61.6523 65.1587V58.6353C61.6523 58.083 61.2046 57.6353 60.6523 57.6353ZM59.6523 64.1587H40.3477V59.6353H59.6523V64.1587Z" fill="black"/>
<path d="M26.3604 56.188C23.2124 56.188 20.6514 58.749 20.6514 61.897C20.6514 65.0449 23.2124 67.606 26.3604 67.606C29.5083 67.606 32.0693 65.0449 32.0693 61.897C32.0693 58.749 29.5083 56.188 26.3604 56.188ZM26.3604 65.606C24.3154 65.606 22.6514 63.9419 22.6514 61.897C22.6514 59.8521 24.3154 58.188 26.3604 58.188C28.4053 58.188 30.0693 59.8521 30.0693 61.897C30.0693 63.9419 28.4053 65.606 26.3604 65.606Z" fill="black"/>
<path d="M73.6396 56.188C70.4917 56.188 67.9307 58.749 67.9307 61.897C67.9307 65.0449 70.4917 67.606 73.6396 67.606C76.7876 67.606 79.3486 65.0449 79.3486 61.897C79.3486 58.749 76.7876 56.188 73.6396 56.188ZM73.6396 65.606C71.5947 65.606 69.9307 63.9419 69.9307 61.897C69.9307 59.8521 71.5947 58.188 73.6396 58.188C75.6846 58.188 77.3486 59.8521 77.3486 61.897C77.3486 63.9419 75.6846 65.606 73.6396 65.606Z" fill="black"/>
<path d="M12.5732 80.3647H16.4424V84.582C16.4424 87.5747 18.8774 90.0093 21.8701 90.0093C24.8628 90.0093 27.2979 87.5747 27.2979 84.582V80.3647H72.7021V84.582C72.7021 87.5747 75.1372 90.0093 78.1299 90.0093C81.1226 90.0093 83.5576 87.5747 83.5576 84.582V80.3647H87.4268C87.979 80.3647 88.4268 79.917 88.4268 79.3647V71.3667C88.4268 70.8145 87.979 70.3667 87.4268 70.3667H86.4434V57.5181C86.4434 52.287 82.2604 48.0239 77.0651 47.8736L74.0688 33.208C73.374 29.375 70.2881 26.5928 66.731 26.5928H33.269C29.7119 26.5928 26.626 29.375 25.9351 33.186L22.9349 47.8736C17.7395 48.0239 13.5566 52.287 13.5566 57.5181V70.3667H12.5732C12.021 70.3667 11.5732 70.8145 11.5732 71.3667V79.3647C11.5732 79.917 12.021 80.3647 12.5732 80.3647ZM25.2979 84.582C25.2979 86.4717 23.7603 88.0093 21.8701 88.0093C19.98 88.0093 18.4424 86.4717 18.4424 84.582V80.3647H25.2979V84.582ZM81.5576 84.582C81.5576 86.4717 80.02 88.0093 78.1299 88.0093C76.2397 88.0093 74.7021 86.4717 74.7021 84.582V80.3647H81.5576V84.582ZM86.4268 78.3647H13.5732V72.3667H86.4268V78.3647ZM27.8989 33.5645C28.4214 30.6836 30.6797 28.5928 33.269 28.5928H66.731C69.3203 28.5928 71.5786 30.6836 72.105 33.5864L75.0205 47.8594H24.9795L27.8989 33.5645ZM15.5566 57.5181C15.5566 53.2949 18.9922 49.8594 23.2153 49.8594H76.7847C81.0078 49.8594 84.4434 53.2949 84.4434 57.5181V70.3667H15.5566V57.5181Z" fill="black"/>
<path d="M49.6284 24.2715C49.7476 24.3193 49.8735 24.3432 50 24.3432C50.126 24.3432 50.2524 24.3193 50.3716 24.2715C50.6333 24.167 56.7969 21.6474 57.9448 16.7075C58.6572 13.6416 56.9307 11.3965 55.0249 10.6074C53.5181 9.98387 51.5185 10.125 50 11.6245C48.4819 10.1264 46.4834 9.98387 44.9756 10.6074C43.0693 11.396 41.3428 13.6416 42.0552 16.7075C43.2036 21.6474 49.3667 24.167 49.6284 24.2715ZM45.7407 12.4551C46.0459 12.3291 46.3901 12.2524 46.749 12.2524C47.5679 12.2524 48.4639 12.6489 49.1509 13.7534C49.3335 14.0469 49.6543 14.2251 50 14.2251C50.3457 14.2251 50.6665 14.0469 50.8491 13.7534C51.8379 12.164 53.2588 12.043 54.2598 12.4551C55.4497 12.9477 56.4477 14.3135 55.9966 16.2544C55.227 19.5674 51.2461 21.666 50 22.2495C48.7544 21.666 44.7734 19.5674 44.0034 16.2544C43.5522 14.3135 44.5508 12.9477 45.7407 12.4551Z" fill="black"/>
<path d="M67.3741 24.4702C67.462 24.4819 68.1837 24.5732 69.2369 24.5732C71.4976 24.5732 75.2847 24.1523 77.6036 21.6206C79.7144 19.3169 79.3155 16.5322 78.0513 14.9204C77.0528 13.647 75.2564 12.7964 73.2159 13.3477C72.6314 11.3154 70.9737 10.2207 69.3668 10.0254C67.334 9.78321 64.7437 10.8789 63.8663 13.8784C62.4522 18.708 66.5508 23.8872 66.7261 24.105C66.8873 24.3057 67.1192 24.4365 67.3741 24.4702ZM65.7852 14.4404C66.3389 12.5493 67.8594 11.8589 69.126 12.0107C70.1881 12.1401 71.3516 12.936 71.4317 14.7837C71.4464 15.1289 71.6387 15.4424 71.9395 15.6118C72.2413 15.7822 72.6085 15.7842 72.9112 15.6177C74.5328 14.73 75.8165 15.313 76.4776 16.1548C77.2632 17.1563 77.46 18.8169 76.129 20.27C73.856 22.752 69.4068 22.627 68.043 22.5259C67.2491 21.4126 64.8399 17.6694 65.7852 14.4404Z" fill="black"/>
<path d="M30.7637 24.605C31.8159 24.605 32.5381 24.5137 32.626 24.502C32.8809 24.4683 33.1128 24.3374 33.2739 24.1367C33.4492 23.9189 37.5479 18.7397 36.1338 13.9097C35.2559 10.9111 32.6636 9.8086 30.6333 10.0571C29.0264 10.2524 27.3691 11.3472 26.7842 13.3794C24.7446 12.8296 22.9482 13.6782 21.9487 14.9517C20.6846 16.5635 20.2852 19.3481 22.3965 21.6523C24.7153 24.1846 28.5034 24.605 30.7637 24.605ZM23.5225 16.186C23.9492 15.6416 24.6372 15.2051 25.5088 15.2051C25.9849 15.2051 26.5156 15.3355 27.0889 15.6494C27.3921 15.8154 27.7598 15.8135 28.0606 15.6436C28.3613 15.4741 28.5537 15.1606 28.5684 14.8154C28.6484 12.9678 29.812 12.1719 30.874 12.0425C32.1416 11.8853 33.6611 12.5815 34.2148 14.4717C35.1602 17.7012 32.751 21.4443 31.957 22.5576C30.5908 22.6592 26.1436 22.7822 23.8711 20.3018C22.54 18.8486 22.7368 17.1875 23.5225 16.186Z" fill="black"/>
</svg>
