<svg width="100" height="100" viewBox="0 0 100 100" fill="none" xmlns="http://www.w3.org/2000/svg">
<path d="M86.5372 15.3691C84.8067 14.6533 82.4981 14.831 80.7735 16.622C79.0498 14.832 76.7422 14.6513 75.0108 15.3691C72.8672 16.2578 70.9268 18.7861 71.7305 22.2353C73.0411 27.8632 80.1026 30.7441 80.4024 30.8642C80.5215 30.9121 80.6475 30.9355 80.7735 30.9355C80.8995 30.9355 81.0254 30.9121 81.1446 30.8642C81.4444 30.7441 88.5079 27.8632 89.8174 22.2353C90.6211 18.7861 88.6807 16.2587 86.5372 15.3691ZM87.8702 21.7822C86.9493 25.7363 82.1524 28.207 80.7725 28.8437C79.3926 28.2099 74.6026 25.749 73.6778 21.7822C73.1358 19.454 74.3418 17.8124 75.7774 17.2167C76.1514 17.0615 76.5743 16.9677 77.0157 16.9677C78.0098 16.9677 79.0948 17.4453 79.9248 18.7773C80.1075 19.0703 80.4278 19.248 80.7735 19.248C81.1182 19.248 81.4395 19.0703 81.6221 18.7773C82.8194 16.8544 84.5498 16.7099 85.7715 17.2167C87.2061 17.8124 88.4122 19.455 87.8702 21.7822Z" fill="black"/>
<path d="M84.6719 52.4854C81.2959 51.083 77.7783 52.0537 75.3819 54.9365C72.9863 52.0527 69.4688 51.083 66.0928 52.4854C62.792 53.8545 59.8057 57.7588 61.0498 63.0967C63.1436 72.0859 74.5274 76.7285 75.0108 76.9219C75.1299 76.9697 75.2559 76.9932 75.3819 76.9932C75.5078 76.9932 75.6338 76.9697 75.7529 76.9219C76.2363 76.7285 87.6221 72.0859 89.7149 63.0967C90.958 57.7588 87.9727 53.8545 84.6719 52.4854ZM87.7676 62.6436C86.1084 69.7656 77.3057 74.0469 75.3809 74.9043C73.4561 74.0488 64.6602 69.7803 62.9971 62.6436C62.0176 58.4404 64.3125 55.3887 66.8594 54.333C67.5625 54.041 68.3565 53.8643 69.1826 53.8643C71.0195 53.8643 73.0156 54.7393 74.5332 57.1738C74.7158 57.4668 75.0361 57.6445 75.3819 57.6445C75.7266 57.6445 76.0479 57.4668 76.2305 57.1738C78.4307 53.6445 81.6377 53.3916 83.9053 54.333C86.4522 55.3887 88.7461 58.4404 87.7676 62.6436Z" fill="black"/>
<path d="M50 26.5918C47.3047 23.249 43.2998 22.1065 39.4561 23.7022C35.7432 25.2412 32.3838 29.6367 33.7842 35.6475C36.1572 45.833 49.0801 51.1026 49.6289 51.3223C49.748 51.3701 49.874 51.3936 50 51.3936C50.126 51.3936 50.2519 51.3701 50.3711 51.3223C50.9199 51.1026 63.8447 45.833 66.2158 35.6475C67.6162 29.6367 64.2588 25.2422 60.5459 23.7022C56.7031 22.1084 52.6963 23.2481 50 26.5918ZM50.8486 28.8467C53.4053 24.7451 57.1367 24.4512 59.7793 25.5498C62.7373 26.7764 65.4043 30.3184 64.2686 35.1944C62.3447 43.4551 52.0908 48.3799 50 49.3057C47.9082 48.3799 37.6562 43.4551 35.7314 35.1944C34.5957 30.3174 37.2637 26.7764 40.2217 25.5489C41.042 25.209 41.9678 25.003 42.9307 25.003C45.0674 25.003 47.3896 26.0196 49.1514 28.8467C49.334 29.1397 49.6543 29.3174 50 29.3174C50.3447 29.3174 50.666 29.1397 50.8486 28.8467Z" fill="black"/>
<path d="M10.3848 70.9541C13.2412 83.2149 28.835 89.5742 29.4971 89.8389C29.6162 89.8867 29.7422 89.9102 29.8682 89.9102C29.9941 89.9102 30.1201 89.8867 30.2393 89.8389C30.9014 89.5742 46.4971 83.2149 49.3516 70.9541C51.0234 63.7764 47.0195 58.5313 42.5918 56.6944C37.9395 54.7666 33.083 56.2061 29.8682 60.3526C26.6553 56.2051 21.8008 54.7657 17.1455 56.6944C12.7178 58.5303 8.71289 63.7764 10.3848 70.9541ZM17.9121 58.542C18.8877 58.1368 20.0234 57.8868 21.2207 57.8868C23.874 57.8868 26.8301 59.1172 29.0195 62.6309C29.2021 62.9239 29.5225 63.1016 29.8682 63.1016C30.2129 63.1016 30.5342 62.9239 30.7168 62.6309C33.8955 57.5303 38.6865 57.2412 41.8252 58.542C45.499 60.0655 48.8115 64.458 47.4043 70.501C45.0176 80.7471 32.2236 86.7901 29.8682 87.8233C27.5127 86.7901 14.7197 80.7471 12.332 70.501C10.9248 64.4571 14.2383 60.0655 17.9121 58.542Z" fill="black"/>
<path d="M34.4629 10C31.7354 10 29.5166 12.2158 29.5166 14.9404C29.5166 17.665 31.7354 19.8818 34.4629 19.8818C37.1895 19.8818 39.4082 17.665 39.4082 14.9404C39.4082 12.2158 37.1895 10 34.4629 10ZM34.4629 17.8818C32.8379 17.8818 31.5166 16.5625 31.5166 14.9404C31.5166 13.3193 32.8379 12 34.4629 12C36.0869 12 37.4082 13.3193 37.4082 14.9404C37.4082 16.5625 36.0869 17.8818 34.4629 17.8818Z" fill="black"/>
<path d="M81.4385 41.4014C81.4385 38.6768 79.2197 36.46 76.4932 36.46C73.7666 36.46 71.5479 38.6768 71.5479 41.4014C71.5479 44.126 73.7666 46.3418 76.4932 46.3418C79.2197 46.3418 81.4385 44.126 81.4385 41.4014ZM73.5479 41.4014C73.5479 39.7793 74.8691 38.46 76.4932 38.46C78.1172 38.46 79.4385 39.7793 79.4385 41.4014C79.4385 43.0225 78.1172 44.3418 76.4932 44.3418C74.8691 44.3418 73.5479 43.0225 73.5479 41.4014Z" fill="black"/>
<path d="M17.5049 16.5752C13.4023 16.5752 10.0654 19.9092 10.0654 24.0068C10.0654 28.1045 13.4023 31.4385 17.5049 31.4385C21.6074 31.4385 24.9443 28.1045 24.9443 24.0068C24.9443 19.9092 21.6074 16.5752 17.5049 16.5752ZM17.5049 29.4385C14.5059 29.4385 12.0654 27.002 12.0654 24.0068C12.0654 21.0117 14.5059 18.5752 17.5049 18.5752C20.5039 18.5752 22.9443 21.0117 22.9443 24.0068C22.9443 27.002 20.5039 29.4385 17.5049 29.4385Z" fill="black"/>
<path d="M18.0605 44.7539C18.0605 48.8516 21.3975 52.1855 25.5 52.1855C29.6025 52.1855 32.9395 48.8516 32.9395 44.7539C32.9395 40.6562 29.6025 37.3223 25.5 37.3223C21.3975 37.3223 18.0605 40.6562 18.0605 44.7539ZM30.9395 44.7539C30.9395 47.749 28.499 50.1855 25.5 50.1855C22.501 50.1855 20.0605 47.749 20.0605 44.7539C20.0605 41.7588 22.501 39.3223 25.5 39.3223C28.499 39.3223 30.9395 41.7588 30.9395 44.7539Z" fill="black"/>
<path d="M58.1602 74.9932C54.0586 74.9932 50.7217 78.3271 50.7217 82.4248C50.7217 86.5225 54.0586 89.8564 58.1602 89.8564C62.2627 89.8564 65.5996 86.5225 65.5996 82.4248C65.5996 78.3271 62.2627 74.9932 58.1602 74.9932ZM58.1602 87.8564C55.1611 87.8564 52.7217 85.4199 52.7217 82.4248C52.7217 79.4297 55.1611 76.9932 58.1602 76.9932C61.1592 76.9932 63.5996 79.4297 63.5996 82.4248C63.5996 85.4199 61.1592 87.8564 58.1602 87.8564Z" fill="black"/>
<path d="M59.833 9.95898C59.2803 9.95898 58.833 10.4062 58.833 10.959V13.2461H56.542C55.9893 13.2461 55.542 13.6934 55.542 14.2461C55.542 14.7988 55.9893 15.2461 56.542 15.2461H58.833V17.5342C58.833 18.0869 59.2803 18.5342 59.833 18.5342C60.3857 18.5342 60.833 18.0869 60.833 17.5342V15.2461H63.125C63.6777 15.2461 64.125 14.7988 64.125 14.2461C64.125 13.6934 63.6777 13.2461 63.125 13.2461H60.833V10.959C60.833 10.4062 60.3857 9.95898 59.833 9.95898Z" fill="black"/>
<path d="M82.042 90C82.5947 90 83.042 89.5527 83.042 89V86.7129H85.333C85.8857 86.7129 86.333 86.2656 86.333 85.7129C86.333 85.1602 85.8857 84.7129 85.333 84.7129H83.042V82.4248C83.042 81.8721 82.5947 81.4248 82.042 81.4248C81.4893 81.4248 81.042 81.8721 81.042 82.4248V84.7129H78.751C78.1982 84.7129 77.751 85.1602 77.751 85.7129C77.751 86.2656 78.1982 86.7129 78.751 86.7129H81.042V89C81.042 89.5527 81.4893 90 82.042 90Z" fill="black"/>
</svg>
