<?xml version="1.0" encoding="UTF-8" standalone="no"?> <svg id="a3773094-7861-4493-877f-ac757a535d93" data-name="line" xmlns="http://www.w3.org/2000/svg" viewBox="0 0 64 64"><title>1</title><polygon points="21.154 22.384 20.701 21.556 20.249 22.384 19.421 22.837 20.249 23.289 20.701 24.117 21.154 23.289 21.982 22.837 21.154 22.384"/><polygon points="43.278 32.996 42.825 33.823 41.997 34.276 42.825 34.729 43.278 35.556 43.73 34.729 44.558 34.276 43.73 33.823 43.278 32.996"/><polygon points="15.943 16.136 15.599 16.764 14.972 17.107 15.599 17.45 15.943 18.078 16.286 17.45 16.913 17.107 16.286 16.764 15.943 16.136"/><polygon points="51.735 27.549 51.392 28.176 50.764 28.52 51.392 28.863 51.735 29.491 52.078 28.863 52.706 28.52 52.078 28.176 51.735 27.549"/><polygon points="44.558 21.866 44.215 22.493 43.587 22.837 44.215 23.18 44.558 23.807 44.901 23.18 45.529 22.837 44.901 22.493 44.558 21.866"/><polygon points="25.719 8.301 26.062 7.673 26.69 7.33 26.062 6.987 25.719 6.359 25.376 6.987 24.748 7.33 25.376 7.673 25.719 8.301"/><polygon points="6.802 13.269 6.329 14.995 5 16.193 6.726 16.666 7.924 17.995 8.397 16.269 9.726 15.071 8 14.598 6.802 13.269"/><polygon points="54.529 8.131 53.331 9.46 51.605 9.933 52.934 11.131 53.406 12.857 54.605 11.528 56.33 11.055 55.001 9.857 54.529 8.131"/><path d="M13.35156,9.64545a.8487.8487,0,0,0,.00005,1.69708A.8487.8487,0,0,0,13.35156,9.64545Z"/><path d="M41.149,13.70538a.84867.84867,0,0,0-.00006-1.697A.84867.84867,0,0,0,41.149,13.70538Z"/><path d="M13.35156,27.67114a.8487.8487,0,0,0,.00005,1.69708A.8487.8487,0,0,0,13.35156,27.67114Z"/><path d="M58.15149,15.92365a.84869.84869,0,0,0,0,1.69707A.84869.84869,0,0,0,58.15149,15.92365Z"/><path d="M51.53174,18.83167a.8487.8487,0,0,0-1.69708.00005A.8487.8487,0,0,0,51.53174,18.83167Z"/><path d="M33.4502,17.83008a2.67759,2.67759,0,0,0-2.66993,2.67969V41.38965a2.68072,2.68072,0,0,0,1.67383,2.483v13.768a1.00012,1.00012,0,0,0,2-.00006V43.87122a2.68132,2.68132,0,0,0,1.67578-2.48157V37.55957a1.0001,1.0001,0,0,0-2,0v3.83a.67487.67487,0,0,1-1.3496-.00005V20.50977a.67487.67487,0,0,1,1.34961.00005V33.55957a1.0001,1.0001,0,0,0,2,0V20.50977A2.68278,2.68278,0,0,0,33.4502,17.83008Z"/><path d="M43.45117,29.89355a1.00067,1.00067,0,0,0,.02149-1.19531L39.35547,22.959l5.43262-5.70605a1.00658,1.00658,0,0,0-.78325-1.68747l-6.12984.35837L36.65234,8.13867a1.00621,1.00621,0,0,0-1.86231-.33l-3.374,6.08-10.5127-2.16894a1.00572,1.00572,0,0,0-.83782,1.752l6.29583,5.17868-2.15625,3.28125a1.0012,1.0012,0,0,0,.47363,1.48145l2.168.84179-4.69434,5.33789a1.00547,1.00547,0,0,0,1.13483,1.58394L29.33691,28.666a1.00048,1.00048,0,0,0-.76761-1.84765L26.5,27.67773,29.294,24.501a1.00016,1.00016,0,0,0-.38868-1.59278l-2.34961-.91211,1.97071-2.998a1.0003,1.0003,0,0,0-.2002-1.32129L24.459,14.49512l7.27247,1.501a1.00064,1.00064,0,0,0,1.07617-.49414l2.32031-4.18066L36.04,17.12988a1.0098,1.0098,0,0,0,1.04687.84278L41.5918,17.71l-4.25586,4.46973a.99978.99978,0,0,0-.08789,1.27246l2.64648,3.68945L38.23145,26.5a.99992.99992,0,0,0-.72067,1.86525l4.789,1.84862A1.00025,1.00025,0,0,0,43.45117,29.89355Z"/></svg>